# xmcd
#
# Track frame offsets:
# 182
# 19092
# 37580
# 57397
# 77630
# 99317
# 120205
# 136692
# 156592
# 177450
# 195945
# 209970
#
# Disc length: 2890 seconds
#
#
# Revision: 4
# Processed by: cddbd v1.5.1PL2 Copyright (c) Steve Scherf et al.
# Submitted via: FreeRIP 2.931 
#
DISCID=960b480c
DTITLE=Shania Twain - The Woman In Me
DYEAR=1993
DGENRE=Country
TTITLE0=Home Ain't Where His Heart Is (Anymore)
TTITLE1=Any Man Of Mine
TTITLE2=Whose Bed Have Your Boots Been Under?
TTITLE3=(If You're Not In It For Love) I'm Outta Here!
TTITLE4=The Woman In Me (Needs The Man In You)
TTITLE5=Is There Life After Love?
TTITLE6=If It Don't Take Two
TTITLE7=You Win My Love
TTITLE8=Raining On Our Love
TTITLE9=Leaving Is The Only Way Out
TTITLE10=No One Needs To Know
TTITLE11=God Bless The Child
EXTD=Produced by Robert John "Mutt" Lange\nMercury Records, a PoluGram company
EXTT0=
EXTT1=
EXTT2=
EXTT3=
EXTT4=
EXTT5=
EXTT6=
EXTT7=
EXTT8=
EXTT9=
EXTT10=
EXTT11=
PLAYORDER=
